<svg xmlns="http://www.w3.org/2000/svg" width="199" height="63"><g fill="#1A1919" fill-rule="evenodd"><path d="M198.504 61.889c-.108 0-.367-.026-.533-.05-.356-.049-.426-.322-.459-.683-.061-.523-.061-1.502-.061-2.696v-1.991c0-1.937 0-2.286.024-2.681.021-.436.119-.648.437-.71a1.65 1.65 0 01.295-.037c.049 0 .098-.123.098-.17 0-.077-.063-.1-.194-.1-.353 0-1.097.036-1.16.036-.056 0-.803-.036-1.195-.036-.127 0-.188.023-.188.1 0 .047.049.17.096.17.082 0 .236.012.365.049.262.064.381.275.403.698.023.395.023.744.023 2.681v1.991c0 1.194 0 2.173-.059 2.696-.046.361-.105.634-.341.683-.106.024-.25.05-.358.05-.068 0-.095.133-.095.17 0 .076.062.101.189.101.357 0 1.104-.037 1.16-.037.063 0 .807.037 1.457.037.133 0 .19-.037.19-.101 0-.037-.022-.17-.094-.17m-73.096-9.118c-.355 0-.91.036-.994.036-.07 0-.723-.036-1.256-.036-.131 0-.189.025-.189.1 0 .049.049.171.095.171.108 0 .307.011.405.038.388.087.482.283.506.705.023.398.023.747.023 2.684v1.454c0 1.281-.141 2.336-.685 3.043a2.438 2.438 0 01-1.858.895c-.676 0-1.209-.113-1.787-.684-.51-.507-.889-1.277-.889-3.066v-1.642c0-1.937 0-2.286.024-2.684.023-.433.117-.658.437-.705.143-.027.213-.038.297-.038.047 0 .096-.122.096-.171 0-.075-.059-.1-.19-.1-.355 0-1.066.036-1.173.036-.108 0-.831-.036-1.362-.036-.129 0-.189.025-.189.1 0 .049.049.171.094.171.107 0 .31.011.404.038.39.087.484.283.508.705.025.398.025.747.025 2.684v1.715c0 1.814.449 2.683 1.029 3.268.84.832 2.035.881 2.438.881.699 0 1.588-.124 2.439-.92.948-.879 1.09-2.371 1.09-3.712v-1.232c0-1.937 0-2.286.024-2.684.023-.433.117-.645.437-.705.141-.038.213-.038.297-.038.047 0 .094-.122.094-.171 0-.075-.061-.1-.19-.1M90.884 6.149c-.137 0-.266.067-.383.2a.098.098 0 00-.012.109c.018.034.06.048.098.047.066-.01.256.003.413.011.094.005.178.01.224.01l.025-.001a.094.094 0 00.062-.16c-.054-.054-.213-.216-.427-.216"/><path d="M87.966 32.231c.028-.015.051-.024.079-.039.061-.029.117-.058.18-.087l.583-.273c.002.122.001.236 0 .335-.003.134-.005.25.002.333.033.446-.525.766-.804.849-.547.206-.993.526-1.348.833.048-.184.094-.383.136-.588l.069-.337h-.345c-.098 0-.227.011-.382.029l-.082.006c.439-.305 1.1-.67 1.912-1.061zm-1.965-2.63c.126-.068.316-.174.544-.306.337.406.985.845 1.675 1.27.096.059.17.103.204.128.169.118.262.319.315.545l-.077.034c-.139.063-.342.158-.565.266-1.693-.687-2.039-1.197-2.096-1.937zm-.013-1.408c0-.469.655-1.005 1.302-1.328.991-.492 1.639-1.266 2.064-1.957.189.421.368.834.53 1.234-.162.624-2.468 2.066-3.395 2.527l-.249.123.01.021-.257.147c.004-.241.009-.5-.005-.767zm-.114-11.545h24.105c.031.281.064.562.101.846-5.129 7.533-6.051 12.313-6.865 16.534-.084.427-.166.845-.25 1.263l-2.037-7.215h.398v-1.342h-1.373v-3.835l.916-.964v-4.121h-1.338v1.446h-.682v-1.446h-1.847v1.446h-.452v-1.446h-1.573v4.121l.921.964v3.835h-1.381v1.342h.399l-2.055 7.084c-.074-.377-.151-.751-.224-1.134-.815-4.219-1.738-8.999-6.865-16.532.036-.284.069-.565.102-.846zm12.207-8.09a.309.309 0 00-.013-.115.521.521 0 00-.1-.164l.008.002c.096 0 .166-.027.217-.092.032.012.062.021.091.031.174.064.335.139.376.225.011.023.024.065-.007.145-.032.092-.095.103-.572-.032zm-.262.509a.345.345 0 00-.019-.111.468.468 0 00-.096-.161h.013a.444.444 0 00.265-.069c.307.109.464.265.482.364.005.031-.006.044-.018.054-.056.043-.248.072-.627-.077zm-.424.435l-.048.078-.004-.026a.541.541 0 00-.097-.211c.24.053.425.023.513-.095.227.101.383.231.419.351a.129.129 0 01-.014.113c-.037.052-.28.072-.769-.21zm-.403.404l-.012.015a.53.53 0 00-.033-.086c.138.036.263.024.352-.083a.215.215 0 00.036-.064c.226.155.358.349.376.467.003.029-.003.043-.004.047-.037.041-.274.044-.715-.296zm-.072.326a.232.232 0 00.059-.093c.306.272.374.505.348.543-.01.011-.03.01-.041.009-.045-.004-.206-.046-.496-.398a.216.216 0 00.13-.061zm.261-1.465a.35.35 0 00.033-.071c.22.092.37.208.408.32.015.042.01.08-.014.116-.037.063-.289.11-.782-.153l-.045.081-.002-.008a.477.477 0 00-.067-.177c.227.056.385.02.469-.108zm.225-.527a.304.304 0 00.047-.056c.258.093.403.223.434.318.013.038.001.053-.002.059-.038.048-.224.097-.668-.067l-.008-.002a.475.475 0 00-.101-.165.482.482 0 00.298-.087zm.274-.599c.2.069.34.162.385.262a.14.14 0 01.005.123c-.036.09-.076.096-.566-.028l-.026-.007a.44.44 0 00-.116-.188h.002c.151 0 .259-.043.316-.162zm.164-.556c.322.106.474.234.482.318a.082.082 0 01-.033.076c-.033.027-.168.1-.565-.02l-.006-.002a.305.305 0 00-.103-.214.378.378 0 00.152-.07.291.291 0 00.073-.088zm.824-.415c.301-.016.438.048.457.103.005.013.004.022-.003.033-.014.018-.092.099-.432.1l.008-.019c.018-.046.03-.12-.03-.217zm.41.657c.024.034.026.054.024.062-.02.059-.311.077-.59.064a.306.306 0 00.002-.068c-.011-.12-.102-.219-.222-.3.123.013.217.014.291-.037l-.001.045c.213.007.419.125.496.234zm-1.222-1.3a.696.696 0 00.177-.079c.331-.057.538.045.598.126.03.039.018.063.014.072-.035.069-.19.148-.514.166a.269.269 0 00-.051-.113.676.676 0 00-.224-.172zm.643.727c.026.038.026.058.025.061-.042.099-.043.099-.246.08a4.126 4.126 0 00-.4-.019h-.02c-.032-.099-.112-.188-.237-.266.21-.019.34-.051.419-.103.188.021.382.137.459.247zm-2.15 2.58c.174.059.301.041.38-.053a.242.242 0 00.05-.11c.235.149.362.318.379.416.002.01.004.035-.005.045-.083.105-.375-.066-.605-.231V9.4l-.11.154c.327.235.365.416.369.467.003.034-.004.062-.02.078-.004.002-.016.008-.049.008-.096-.006-.265-.083-.457-.276a.278.278 0 00.079-.052c.034-.036.073-.101.064-.215a.652.652 0 00-.075-.23zm2.467-1.242c-.024.018-.127.062-.472-.05-.025-.008-.05-.019-.076-.027a.337.337 0 00-.031-.193.5.5 0 00-.073-.11.456.456 0 00.232-.074c.316.107.435.277.441.389.003.048-.014.06-.021.065zm-9.237-1.027l.001-.012c.025-.03.034-.036.036-.039l.027-.006a.416.416 0 01.07.024c.105.04.281.094.428.052a.236.236 0 01.064-.007c.135 0 .337.061.423.092a1.636 1.636 0 01-.444.116l-.44-.104c-.066-.036-.114-.077-.165-.116zm.437.589c.299.096.638.153.951.162.179.042.393.13.405.311.007.101-.05.208-.123.307a1.159 1.159 0 00-.907-.153 1.062 1.062 0 01-.689-.141.781.781 0 01-.341-.517l-.029-.104a3.435 3.435 0 01-.082-.362c.022.024.031.052.055.075.172.171.434.315.76.422zm1.325-2.126c-.186 0-.359.087-.483.157h-.001c-.256-.112-.459.082-.576.192l-.022.021c-.298.002-.779.242-.931.357.004-.007.004-.017.009-.026.246-.43.762-.746 1.538-.941a2.96 2.96 0 01.54-.085c-.091.079-.1.202-.074.325zm3.092 10.434c.052-.212.115-.359.17-.487.104-.242.184-.431.084-.789-.06-.221-.33-1.337-.466-1.91 2.507.59 3.416.244 4.721-.449-.023.272-.005.611.322 1.413.049.121.106.249.16.374.118.269.242.548.261.689l.011.07c.022.131.052.31-.046.426-.093.113-.304.175-.635.18-.272.005-.836.014-.923.49-.009.043-.003.076-.005.116H94.37a.349.349 0 00.063-.123zm-1.306-.523a7.01 7.01 0 01.036-.858c.055.134.096.251.113.338.086.447-.029.493-.149.52zm.058.326c.263-.059.548-.217.414-.909-.039-.204-.168-.494-.316-.83l-.012-.028c.014-.038.028-.086.042-.101.279-.305.471-.544.648-.793.141.588.352 1.462.408 1.67.07.247.024.354-.069.57-.057.134-.129.301-.188.54-.007.033-.11.047-.177.057a.687.687 0 00-.18.042c-.049.024-.08.064-.115.102h-.89c.172-.176.311-.287.435-.32zm6.4.205c-.03.043-.075.079-.118.115h-1.055c.001-.02-.002-.029.004-.057.035-.194.318-.215.629-.22.416-.007.698-.103.859-.298.194-.232.145-.519.116-.69l-.008-.062c-.027-.188-.153-.474-.285-.776a13.501 13.501 0 01-.158-.366c-.35-.854-.319-1.112-.289-1.384.002-.028.002-.06.006-.088.421-.227.892-.479 1.478-.75.072.358.177.625.293.837-.643.685-.772 1.423-.346 2.2l.06.113c.157.297.174.328.012.613l-.027.048c-.219.39-.356.623-.488.585-.311-.097-.528-.038-.683.18zm3.116-.324l.004.034a.397.397 0 00-.213.405h-2.029c.226-.098.394-.387.582-.719l.025-.047c.243-.424.176-.582-.006-.93l-.064-.117c-.143-.261-.494-.931.24-1.761.198.246.399.36.51.42l.002.002c.246.641 1.031 1.247 1.463 1.579.096.075.172.133.211.169.008.01.025.045.027.118.002.182-.08.411-.135.496l-.058-.011a.68.68 0 00-.377-.004c-.217.072-.192.285-.182.366zm5.004.013c-.93-.323-1.537-.855-1.809-1.581-.173-.464-1.509-3.161-2.816-4.297a.164.164 0 00-.221.004.163.163 0 00-.021.217c.416.567.609.942.586 1.534a17.65 17.65 0 00.056 1.311c.084.71.387 1.133.903 1.259.097.252-.102 1.534-.209 1.9a2.417 2.417 0 01-.422.079h-.924l-.014-.036c-.005-.037.012-.064.051-.08.198-.083.172-.279.162-.362 0-.007 0-.015-.002-.022.047-.006.104.007.163.019.074.018.15.036.228.017.168-.036.268-.309.314-.469.053-.188.114-.529-.08-.71a3.979 3.979 0 00-.236-.19c-.385-.297-1.185-.917-1.371-1.482a.16.16 0 00-.064-.086.872.872 0 00-.071-.041c-.205-.113-.687-.38-.857-1.511a.168.168 0 00-.082-.121.17.17 0 00-.149-.006c-.699.314-1.241.606-1.72.864-1.494.807-2.245 1.215-4.95.551a.162.162 0 00-.181.08c-.253.44-.481.717-.899 1.174-.245.272-.287 1.286-.273 1.84-.007.03-.093.096-.139.132-.061.048-.124.097-.167.143-.063-.01-.17-.027-.322.027a.789.789 0 00-.327.23l-.043.039h-.903l-.012-.001a2.704 2.704 0 01.362-.249c.304-.188.648-.402.715-.94.038-.293.17-1.965-.078-2.862-.222-.679-.126-1.062-.034-1.431.106-.436.204-.898-.211-1.715.469-.095.811-.301.99-.639.291-.553.062-1.221-.05-1.389a.165.165 0 00-.275.183c.068.1.252.637.033 1.052-.133.254-.394.418-.777.492a.797.797 0 00.142-.481c-.012-.173-.114-.482-.69-.614-.175-.006-.33-.053-.496-.083.163-.046.3-.111.322-.207.011-.049.002-.122-.101-.19l-.002.004-.016-.01.001-.003-.003.003c-.163-.083-.507-.117-.511-.117a.4.4 0 00-.116.014c-.096.028-.219-.013-.309-.046a.369.369 0 00-.134-.036l-.027.002c-.084.014-.115.028-.183.111-.039-.052-.074-.109-.07-.174.003-.074.051-.153.146-.233.118-.103.638-.34.767-.299a.166.166 0 00.148-.035c.026-.024.054-.049.08-.075.167-.158.191-.152.249-.11a.165.165 0 00.176.015l.091-.052c.205-.119.32-.174.52-.015a.17.17 0 00.213-.007.164.164 0 00.029-.211 1.117 1.117 0 01-.105-.219c.075.044.195.132.38.302.138.126.328.187.53.253.296.096.601.197.733.506.134.313.371 1.206.495 2.09l.263-.462c-.137-.768-.332-1.47-.454-1.756-.191-.449-.603-.582-.935-.692-.167-.054-.324-.105-.41-.183-.209-.192-.373-.313-.508-.378.234.014.475.053.779.104.579.1 1.35.231 2.667.278-.163.208-.306.499-.407.916-.011.041-.019.116-.03.217-.051.464-.17 1.551-.897 2.034-.048.031-.139.059-.246.092-.575.183-1.643.521-1.744 2.931l.329.013c.09-2.179.982-2.46 1.514-2.629.131-.041.243-.076.329-.134.023-.015.04-.035.064-.052.004-.006.011-.008.015-.012.78-.588.909-1.714.962-2.207.01-.081.016-.144.024-.176.233-.96.686-1.11 1.087-1.241.092-.031.179-.06.261-.096 1.652-.782 3.304-1.192 4.632-1.521 1.043-.257 1.871-.463 2.367-.763a.266.266 0 01.063-.003c-.039.053-.137.152-.367.309a.172.172 0 00-.071.16c.049.34.038.475-.269.542a.18.18 0 00-.104.072.164.164 0 00-.021.124l.035.141c.051.203.078.33.024.418-.061.096-.229.172-.5.231a.168.168 0 00-.131.181l.019.133c.049.319.069.451-.541.621a.168.168 0 00-.121.188c.012.057.035.107.057.155.047.1.07.159.033.252-.094.239-.596.687-2.466 1.458-.037.019-.066.048-.097.074-.008-.113-.074-.249-.223-.368.316-.012.439-.059.481-.194.017-.05.021-.129-.049-.228a.682.682 0 00-.18-.166.393.393 0 00.22-.133.224.224 0 00.031-.209c-.069-.192-.365-.271-.796-.212l.002.003c-.02-.014-.041-.029-.063-.042.188-.045.314-.123.367-.228a.25.25 0 00-.029-.269c-.094-.127-.32-.235-.62-.217a.252.252 0 00-.055-.168c-.109-.149-.411-.278-.816-.203l.032.184c.344-.059.571.049.634.131.024.033.015.051.012.058-.029.056-.191.15-.621.15v.189c.296 0 .594.188.596.253-.005.016-.061.087-.745.102l-.024.185c.362.106.498.244.506.33a.078.078 0 01-.031.071c-.03.022-.156.091-.516-.009l-.097-.029-.055.179.096.03c.206.063.396.135.441.221.009.02.021.052 0 .116-.03.095-.144.121-.673-.012l-.051.182c.314.094.479.242.5.34.007.029-.004.041-.015.051-.053.047-.25.082-.65-.061l-.015-.006-.064.177.013.004c.25.094.424.223.466.345a.124.124 0 01-.01.11c-.047.075-.258.079-.693-.151l-.092.166c.235.137.34.304.357.404.007.034.002.06-.01.076-.003.003-.107.111-.642-.266l-.001-.001-.109.154h.001c.28.2.391.413.402.533.004.042-.005.062-.009.066-.01.01-.021.021-.052.014-.045-.003-.213-.034-.486-.357l-.143.122c.199.237.361.345.483.392l-.008.008c.167.2.348.345.513.419l-.013.009c.291.392.551.609.751.625l.024.001c.064 0 .121-.02.161-.059a.216.216 0 00.063-.175.625.625 0 00-.099-.278c.216.071.358.037.428-.04.03-.035.063-.097.049-.199a.6.6 0 00-.098-.238c.254.075.436.052.52-.071a.31.31 0 00.039-.274.48.48 0 00-.099-.176c.133 0 .233-.021.305-.077a.239.239 0 00.086-.234.435.435 0 00-.112-.209c.152 0 .242-.049.294-.194V8.65c.066.192.259.374.621.332l.114-.011c2.828-.29 3.579.329 3.777.722.076.153.215.302.494.599.125.132.279.295.469.504.425.465.875 1.441 1.31 2.384.092.197.182.392.276.588.228.486.654 1.393 2.259 1.771.049.018.168.194.26.459-.025.027-.16.047-.26.006-.043-.015-.052-.031-.084-.078-.054-.078-.129-.185-.363-.267zm-3.045-1.737a.26.26 0 00-.17-.129c-.519-.11-.638-.615-.681-.985l-.006-.046a15.817 15.817 0 01-.049-1.215c.01-.214-.01-.409-.053-.59.949 1.247 1.774 2.93 1.887 3.236.307.822.982 1.421 2.027 1.783a.286.286 0 01.158.109h-3.281c.088-.339.379-1.789.168-2.163zM91.209 4.139c.013.058.025.114.033.173-.037-.296-.127-.589-.299-.825l.273.106a.723.723 0 00.221-.152c.011.641.595.486.595.044a.89.89 0 01.121-.489.89.89 0 01.12.489c0 .442.585.597.597-.044.077.07.131.115.219.152l.275-.106a1.811 1.811 0 00-.325.949h-1.773c-.002-.036-.016-.072-.02-.107h1.813c.008-.065.024-.127.037-.19h-1.887zm-.577-.745c.278.324.462.758.452 1.233h2.138a1.857 1.857 0 01.671-1.46l-.794.216s-.321-.259-.505-.489l.062.316c.093.435-.16.615-.2.286-.044-.363-.059-.53-.303-.813-.244.283-.259.45-.303.813-.041.329-.293.149-.201-.286l.064-.316c-.185.23-.505.489-.505.489l-.482-.131c.315-.502.63-1.04.942-1.637.638.257 1.699.572 6.257.572 4.557 0 5.62-.315 6.259-.572 2.248 4.312 4.681 6.026 5.968 6.875-.586 2.765-.504 5.144-.238 7.595h-1.185a.367.367 0 00-.01-.185c-.059-.183-.221-.615-.489-.681-1.453-.342-1.82-1.125-2.042-1.596-.092-.191-.18-.386-.272-.58-.447-.967-.906-1.965-1.365-2.468-.192-.21-.348-.376-.473-.51-.25-.263-.385-.409-.439-.518-.416-.835-1.793-1.136-4.106-.903l-.111.011c-.111.01-.251.001-.285-.121-.033-.11.028-.255.119-.299 2.107-.871 2.517-1.334 2.637-1.639a.563.563 0 00-.016-.451c.644-.223.666-.522.609-.913.285-.077.467-.188.563-.341.131-.208.076-.436.019-.658.401-.16.405-.512.377-.76.276-.197.539-.441.428-.677-.086-.183-.352-.203-.504-.157a.118.118 0 00-.039.019c-.449.281-1.266.483-2.295.737-1.343.332-3.013.746-4.691 1.542-.07.03-.146.055-.227.081-.167.056-.361.119-.55.242a17.888 17.888 0 01-2.959-.283c-.688-.118-1.103-.186-1.813-.01-.866.219-1.453.588-1.744 1.098-.357.628-.165 1.272-.085 1.548.011.034.02.061.023.08.069.316.232.56.487.724.333.213.742.228.936.185a.863.863 0 01.592.056c-.094.053-.24.157-.303.18-.076.029.037.127.477.125a.763.763 0 00.131-.011c.416.769.325 1.141.219 1.57-.097.396-.209.845.04 1.605.211.765.121 2.288.067 2.726-.048.384-.274.524-.563.701-.073.046-.149.093-.224.145-.213.15-.345.265-.377.386h-4.534c.265-2.451.348-4.83-.238-7.595 1.091-.719 3.004-2.078 4.933-5.096zm17.929 23.471c.648.323 1.302.859 1.302 1.313-.013.282-.009.542-.006.783a15.661 15.661 0 01-.255-.148l.009-.021-.25-.123c-.923-.461-3.232-1.902-3.394-2.527.162-.4.342-.813.529-1.234.426.691 1.074 1.465 2.065 1.957zm-.807 4.673a28.29 28.29 0 00-.57-.268l-.073-.032c.055-.226.149-.427.315-.545.035-.025.109-.069.205-.128.689-.425 1.338-.864 1.674-1.27.228.132.418.238.545.306-.057.74-.403 1.25-2.096 1.937zm2.043 1.754l-.082-.006a3.547 3.547 0 00-.381-.029h-.346l.069.337c.041.205.089.406.136.59a4.495 4.495 0 00-1.369-.842c-.258-.076-.818-.396-.783-.842.006-.083.004-.199.002-.331 0-.1-.002-.215 0-.336l.582.272c.068.032.131.063.197.096l.065.03c.81.391 1.47.754 1.91 1.061zm-13.209 1.223v1.13h-3.476l.328-1.13h3.148zm-1.744-1.206v.972h-1.336l.282-.972h1.054zm1.149-1.447v1.213h-2.135l.35-1.213h1.785zm.688-1.206v.971h-2.403l.281-.971h2.122zm-.688-1.204v.969h-1.367l.282-.969h1.085zm-.687-1.376h1.375v1.14h-1.704l.329-1.14zm4.551 2.345v-.969h1.069l.275.969h-1.344zm-.688 1.206v-.971h2.097l.275.971h-2.372zm.688 1.448v-1.213h1.748l.342 1.213h-2.09zm1.151 1.206v-.972h1.008l.271.972h-1.279zm-1.745.234h3.092l.317 1.13h-3.409v-1.13zm-2.298-.803c0-.879.495-1.28.955-1.28.466 0 .966.402.966 1.291v1.922h-1.921v-1.933zm-.312-.403c-.024.133-.065.251-.065.403v.569h-1.556v-.972h1.621zm2.572 0h1.595v.972h-1.557v-.558a2.34 2.34 0 00-.038-.414zm.445-1.447v1.213h-.505c-.208-.669-.727-1.02-1.245-1.02-.514 0-1.024.354-1.229 1.02h-.511v-1.213h3.49zm-2.799-.235h2.109v-.971h-2.109v.971zm2.298-2.411v-1.14h1.37l.322 1.14h-1.692zm-2.298 0h2.109v-1.14h-2.109v1.14zm-.691 1.205h3.49v-.969h-3.49v.969zm-1.286-2.722h6.057v-.588h-6.057v.588zm1.787-5.722v.729h-.447l-.696-.729h1.143zm-1.328-.235h2.478v-.971h-2.478v.971zm2.667 0h2.474v-.971H98.02v.971zm1.149.964v-.729h1.142l-.693.729h-.449zm-1.149 1.206h1.556v-.972H98.02v.972zm-1.149-1.206h2.109v-.729h-2.109v.729zm-.596 1.206h1.556v-.972h-1.556v.972zm0 .964h3.301v-.73h-3.301v.73zm.596 1.859h2.109v-.659h-2.109v.659zm-.596 0h.406v-.659h-.406v.659zm0-.894h1.556v-.729h-1.556v.729zm2.894.894h.407v-.659h-.407v.659zm-1.149-.894h1.556v-.729H98.02v.729zm-.641-6.204V18.19h1.094v1.447h1.434V18.19h.587v2.346h-5.141V18.19h.821v1.447h1.205zM86.158 33.849a12.037 12.037 0 01-.34 1.158l-.339.96.786-.646c.08-.068.178-.163.296-.277.364-.354.917-.892 1.625-1.16.489-.145 1.244-.662 1.188-1.427-.007-.071-.005-.168-.003-.281.009-.558.024-1.494-.622-1.946-.042-.028-.124-.079-.233-.147-.301-.184-1.113-.683-1.483-1.066.69-.38 2.39-1.374 3.098-2.233 1.071 2.811 1.528 5.159 1.952 7.35.12.627.24 1.241.37 1.853l.047.222h10.852l.044-.222c.131-.61.252-1.226.372-1.853.423-2.191.88-4.539 1.953-7.35.707.859 2.406 1.853 3.097 2.233-.371.383-1.183.882-1.482 1.066l-.234.147c-.647.452-.631 1.389-.622 1.948.002.113.004.208-.003.279-.057.765.697 1.282 1.169 1.42.729.275 1.28.813 1.647 1.169.115.114.213.207.293.275l.783.646-.336-.958a11.17 11.17 0 01-.34-1.16c.235.025.549.055.897.046l.541-.011-.322-.437c-.366-.501-1.407-1.098-2.379-1.581 1.933-.883 2.021-1.666 1.994-2.899-.006-.233-.01-.484.004-.774 0-.953-1.237-1.645-1.615-1.833-1.036-.517-1.663-1.391-2.024-2.08.918-1.943 2.137-4.099 3.818-6.557l.061-.088-.014-.106c-.386-3.014-.646-5.779.09-9.109l.041-.19-.162-.106c-1.215-.797-3.744-2.455-6.057-6.997l-.117-.232-.353.144c-.557.233-1.401.585-6.171.585-4.768 0-5.612-.352-6.17-.585l-.353-.143-.117.231c-2.312 4.542-4.842 6.2-6.057 6.997l-.164.106.043.19c.738 3.334.491 5.987.091 9.109l-.014.106.061.088c1.679 2.457 2.899 4.614 3.817 6.557-.362.689-.988 1.563-2.024 2.08-.379.188-1.615.88-1.613 1.848.012.274.008.525.003.758-.028 1.233.059 2.017 1.993 2.9-1.272.63-2.071 1.161-2.381 1.581l-.321.437.542.011c.346.011.662-.02.897-.046zM33.683 52.771c-.355 0-.91.036-.994.036-.07 0-.721-.036-1.255-.036-.13 0-.189.025-.189.1 0 .049.048.171.096.171.104 0 .306.011.401.038.391.087.485.283.508.705.024.398.024.747.024 2.684v1.454c0 1.281-.141 2.336-.686 3.043a2.438 2.438 0 01-1.858.895c-.675 0-1.209-.113-1.788-.684-.509-.507-.888-1.277-.888-3.066v-1.642c0-1.937 0-2.286.024-2.684.024-.433.118-.658.438-.705.141-.027.213-.038.296-.038.047 0 .095-.122.095-.171 0-.075-.06-.1-.191-.1-.355 0-1.064.036-1.171.036-.107 0-.829-.036-1.36-.036-.131 0-.191.025-.191.1 0 .049.048.171.095.171.106 0 .307.011.402.038.391.087.486.283.51.705.024.398.024.747.024 2.684v1.715c0 1.814.449 2.683 1.029 3.268.841.832 2.036.881 2.439.881.698 0 1.587-.124 2.438-.92.946-.879 1.089-2.371 1.089-3.712v-1.232c0-1.937 0-2.286.024-2.684.024-.433.119-.645.437-.705.143-.038.215-.038.298-.038.045 0 .093-.122.093-.171 0-.075-.059-.1-.189-.1m55.028 9.09c-2.13 0-3.787-1.863-3.787-4.756 0-2.719 1.48-4.086 3.457-4.086 1.869 0 3.598 1.602 3.598 4.582 0 3.613-2.203 4.26-3.268 4.26zm-.248-9.265c-3.267 0-4.665 2.846-4.665 4.857 0 2.236 1.35 4.88 4.594 4.88 2.854 0 4.723-2.296 4.723-5.081 0-2.892-1.989-4.656-4.652-4.656zm23.748 7.315a.219.219 0 00-.209.187c-.035.224-.189.769-.438 1.042-.474.51-1.173.621-2.06.621-2.533 0-3.629-2.173-3.629-4.543 0-1.267.199-2.373 1.064-3.242.416-.422.504-.907 2.079-.907 1.043 0 1.955.335 2.369.707.308.272.496.782.496 1.267 0 .174.107.261.187.261.073 0 .096-.074.106-.261.013-.187.013-.869.035-1.278.023-.448.06-.597.06-.696 0-.074-.023-.124-.154-.138-.428.046-.758-.098-1.207-.184a9.485 9.485 0 00-1.717-.151c-1.824 0-2.347.584-3.06 1.33-1.053 1.104-1.322 2.558-1.322 3.39 0 1.18.283 2.595 1.431 3.675.934.884 1.578 1.342 3.356 1.342.756 0 1.431-.086 1.906-.287.211-.098.234-.124.307-.359.117-.423.486-1.502.486-1.589 0-.1-.026-.187-.086-.187m33.695 1.978c-.107 0-.367-.026-.533-.05-.353-.049-.426-.322-.461-.683-.06-.523-.06-1.502-.06-2.696v-1.991c0-1.937 0-2.286.023-2.681.023-.436.119-.648.438-.71a1.69 1.69 0 01.296-.037c.047 0 .096-.123.096-.17 0-.077-.059-.1-.189-.1-.356 0-1.102.036-1.161.036-.058 0-.806-.036-1.195-.036-.131 0-.189.023-.189.1 0 .047.047.17.093.17.084 0 .237.012.368.049.261.064.379.275.402.698.021.395.021.744.021 2.681v1.991c0 1.194 0 2.173-.058 2.696-.045.361-.104.634-.342.683-.105.024-.248.05-.353.05-.073 0-.096.133-.096.17 0 .076.058.101.189.101.354 0 1.102-.037 1.16-.037.059 0 .805.037 1.456.037.13 0 .189-.037.189-.101 0-.037-.023-.17-.094-.17m-98.482-9.118c-.485 0-.875.036-1.007.036-.13 0-.696-.036-1.229-.036-.143 0-.238.013-.238.087 0 .05.011.183.095.183.095 0 .367.012.58.063.367.1.451.372.461 1.18l.131 6.213c-.379-.413-5.491-7.291-5.676-7.511a.329.329 0 00-.074-.083.265.265 0 00-.174-.061c-.041 0-.135-.007-.275-.012a51.254 51.254 0 00-1.485-.025c-.141 0-.213.025-.213.098 0 .051.034.17.093.17.107 0 .368.013.592.076.32.099.468.59.491 1.609l-.01 5.479c0 1.13-.058 1.491-.355 1.578a1.642 1.642 0 01-.485.074c-.059 0-.095.12-.095.17 0 .087.071.101.191.101.532 0 1.029-.037 1.136-.037.106 0 .58.037 1.254.037.141 0 .213-.027.213-.101 0-.05-.034-.17-.093-.17-.107 0-.368-.013-.592-.074-.32-.1-.438-.422-.462-1.44v-6.093c.379.445 5.416 7.093 5.547 7.218.628.657.816.747.91.747.082 0 .13-.062.13-.88v-7.184c0-.744.048-1.018.438-1.103.143-.039.225-.039.285-.039.083 0 .131-.133.131-.183 0-.074-.084-.087-.215-.087m10.872 7.133c-.084 0-.112.061-.128.161a2.333 2.333 0 01-.331.79c-.194.297-.303.579-.718.726-.374.119-.959.119-1.312.119-1.392 0-1.605-.161-1.646-1.019-.015-.261 0-1.7 0-2.122v-1.096c0-.047.028-.084.097-.084.122 0 .536.006.969.015.192.007.388.011.562.02l.257.01c.1.005.185.011.244.016l.137.013c.374.072.646.745.727.938.073.157.085.278.098.402.005.062.039.108.11.101.098-.011.086-.145.075-.246a36.222 36.222 0 01-.023-1.28c.001-.411.051-1.11.044-1.184l-.004-.028c-.009-.05-.035-.068-.07-.068-.056 0-.113.063-.213.163-.128.123-.326.629-.668.656-.326.023-2.072.023-2.257.023-.072 0-.085-.037-.085-.124V53.38c0-.087.028-.127.085-.127.155 0 1.704.014 1.945.04l.077.006.166.018c.602.085.898.809 1.033.958.107.124.177.322.199.407.026.094.07.146.152.119.054-.014.063-.093.06-.158a55.478 55.478 0 00-.148-1.291c-.045-.32-.03-.449-.044-.54-.003-.055-4.024-.005-4.122-.005-.072 0-.966-.036-1.606-.036-.157 0-.227.023-.227.1 0 .047.057.17.113.17.128 0 .37.012.484.037.468.087.582.287.61.71.029.395.029.744.029 2.681v1.991c0 1.194 0 2.173-.071 2.696-.057.361-.128.634-.413.683-.127.024-.297.05-.425.05-.086 0-.115.133-.115.17 0 .076.072.101.228.101.427 0 1.321-.037 1.393-.037.412 0 1.363.074 3.507.074h.495c.441 0 .535 0 .6-.207.114-.36.217-1.766.217-1.901 0-.137-.014-.185-.087-.185m-2.927-2.49l.254.01-.254-.01m30.485-14.476a.26.26 0 00-.253.263.26.26 0 00.253.263c.137 0 .25-.119.25-.263a.258.258 0 00-.25-.263m2.533-.538l.377.896h-.738l.361-.896zm-.757 1.976l.342-.929h.838l.343.929h.344l-.996-2.394h-.073l-1.035 2.394h.237zm4.058-1.238c0 .771-.451 1.106-.974 1.106h-.486v-2.092h.569c.555 0 .891.317.891.986zm-1.759-1.11v2.348h.868c.777 0 1.204-.572 1.204-1.238 0-.685-.317-1.11-1.043-1.11h-1.029zm2.815 1.052c.109 0 .197-.097.197-.209 0-.117-.088-.209-.197-.209a.203.203 0 00-.199.209c0 .112.089.209.199.209m3.012-1.052l-.997 1.815-.915-1.815h-.056l-.348 2.348h.239l.161-1.774.85 1.746h.029l.871-1.743.201 1.771h.296l-.274-2.348h-.057m1.909.096a.79.79 0 01.627.274h.041l.07-.257a1.715 1.715 0 00-.738-.159c-.716 0-1.231.473-1.231 1.234 0 .675.399 1.206 1.19 1.206.284 0 .518-.06.718-.193v-.225h-.037a.896.896 0 01-.64.279c-.616 0-.907-.5-.907-1.067 0-.674.369-1.092.907-1.092m2.401 0c.27 0 .448.086.627.274h.041l.073-.257a1.733 1.733 0 00-.741-.159c-.714 0-1.23.473-1.23 1.234 0 .675.398 1.206 1.189 1.206.286 0 .518-.06.719-.193v-.225h-.037a.897.897 0 01-.641.279c-.616 0-.905-.5-.905-1.067 0-.674.37-1.092.905-1.092m2.405 0c.269 0 .445.086.629.274h.039l.068-.257a1.706 1.706 0 00-.736-.159c-.717 0-1.231.473-1.231 1.234 0 .675.397 1.206 1.188 1.206.283 0 .519-.06.718-.193v-.225h-.037a.899.899 0 01-.638.279c-.617 0-.908-.5-.908-1.067 0-.674.369-1.092.908-1.092m2.931 2.252l-.769-1.323.707-1.025h-.229l-.56.905-.53-.905h-.332l.678 1.18-.752 1.168h.233l.601-1.043.606 1.043h.347m1.635-2.252c.27 0 .445.086.627.274h.041l.07-.257a1.715 1.715 0 00-.738-.159c-.717 0-1.23.473-1.23 1.234 0 .675.396 1.206 1.189 1.206.283 0 .518-.06.719-.193v-.225h-.037a.904.904 0 01-.641.279c-.617 0-.908-.5-.908-1.067 0-.674.371-1.092.908-1.092m1.199 2.252h.297v-2.348h-.297zm1.584-.912a.259.259 0 00.252-.263.259.259 0 00-.252-.263.26.26 0 00-.252.263.26.26 0 00.252.263m-23.943-4.438a.258.258 0 00-.254.261.26.26 0 00.254.265c.136 0 .248-.119.248-.265a.255.255 0 00-.248-.261m2.129 1.334c-.237 0-.403-.15-.506-.365h-.022l-.07.311c.154.102.331.202.546.202.434 0 .817-.221.817-.726 0-.391-.281-.549-.549-.662-.259-.107-.499-.188-.499-.493 0-.235.188-.411.425-.411.197 0 .339.105.405.305h.03l.092-.281a.695.695 0 00-.49-.17c-.392 0-.714.214-.714.655 0 .434.35.547.643.666.215.094.388.214.388.462 0 .27-.2.507-.496.507m3.441.028c-.515 0-.9-.387-.9-1.057 0-.597.286-1.148.942-1.148.571 0 .909.429.909 1.052 0 .586-.295 1.153-.951 1.153zm1.272-1.153c0-.808-.62-1.169-1.23-1.169-.727 0-1.262.441-1.262 1.265 0 .655.448 1.177 1.216 1.177.782 0 1.276-.501 1.276-1.273zm1.67-1.121v2.35h1.206v-.163h-.911v-2.187h-.295m4.684 1.121c0 .586-.296 1.153-.951 1.153-.516 0-.901-.387-.901-1.057 0-.597.287-1.148.944-1.148.569 0 .908.429.908 1.052zm-2.172.096c0 .655.45 1.177 1.217 1.177.782 0 1.276-.501 1.276-1.273 0-.808-.62-1.169-1.229-1.169-.728 0-1.264.441-1.264 1.265zm6.507-1.217h-.056l-.997 1.817-.917-1.817h-.055l-.348 2.35h.242l.159-1.776.849 1.746h.028l.873-1.741.201 1.771h.295l-.274-2.35m3.139.161v-.161h-1.199v2.35h1.199v-.163h-.902v-1.014h.802v-.161h-.802v-.851h.902m1.668 2.187h.295v-2.348h-.295zm1.832-1.175a.255.255 0 00-.25-.261.256.256 0 00-.25.261c0 .146.113.265.25.265.139 0 .25-.119.25-.265M15.293 57.801c-.625 0-.947-.087-1.162-.2-.071-.037-.099-.087-.099-.148v-4.062c0-.074.043-.124.114-.148.144-.037.26-.075.685-.075 1.521 0 2.394.93 2.394 2.485 0 .942-.369 1.613-.866 1.911-.328.198-.726.237-1.066.237zm6.197 4.088c-.085-.004-.284 0-.553-.037-.356-.05-.949-.11-1.734-.799-.915-.801-1.424-1.717-2.504-3.178 1.278-1.032 1.716-1.748 1.716-2.667 0-.857-.621-1.666-.978-1.891-.752-.473-1.639-.546-2.534-.546-.441 0-1.254.036-1.41.036-.072 0-.967-.036-1.605-.036-.158 0-.228.023-.228.1 0 .047.056.17.114.17.127 0 .369.012.483.037.468.087.582.287.611.71.028.395.028.744.028 2.681v1.991c0 1.194 0 2.173-.071 2.696-.056.361-.128.634-.412.683-.127.024-.298.05-.427.05-.085 0-.113.133-.113.17 0 .076.072.101.227.101.426 0 1.321-.037 1.336-.037.07 0 .966.037 1.748.037.154 0 .226-.037.226-.101 0-.037-.028-.17-.113-.17-.128 0-.442-.026-.64-.05-.426-.049-.511-.322-.554-.683-.071-.523-.071-1.502-.071-2.696v-.2c0-.062.028-.099.099-.099l1.416.023c.086 0 .129.026.187.076.284.323.693 1.124 1.256 1.838.704.893 1.148 1.539 1.759 1.826.369.174.725.236 1.52.236h1.008c.256 0 .341-.025.341-.101 0-.037-.004-.165-.128-.17zm116.557-1.978a.219.219 0 00-.211.187c-.035.224-.188.769-.438 1.042-.474.51-1.171.621-2.06.621-2.533 0-3.631-2.173-3.631-4.543 0-1.267.203-2.373 1.066-3.242.415-.422.506-.907 2.081-.907 1.039 0 1.951.335 2.367.707.306.272.496.782.496 1.267 0 .174.105.261.187.261.073 0 .096-.074.108-.261.009-.187.009-.869.035-1.278.023-.448.058-.597.058-.696 0-.074-.025-.124-.152-.138-.43.046-.758-.098-1.209-.184a9.485 9.485 0 00-1.717-.151c-1.822 0-2.349.584-3.058 1.33-1.055 1.104-1.326 2.558-1.326 3.39 0 1.18.285 2.595 1.431 3.675.936.884 1.582 1.342 3.356 1.342.758 0 1.431-.086 1.906-.287.215-.098.238-.124.307-.359.119-.423.486-1.502.486-1.589 0-.1-.024-.187-.082-.187M4.063 61.798a2.64 2.64 0 01-1.021-.185c-.44-.188-.44-.362-.482-.969-.015-.185-.015-1.726-.015-2.682v-.71c0-.06.028-.086.085-.086.213 0 .694 0 .878.026.341.037.697.074 1.179.359 1.095.659 1.378 1.74 1.378 2.486 0 1.402-1.236 1.761-2.002 1.761zm-1.518-8.481c0-.074.042-.111.17-.135.228-.05.802-.063.958-.063 1.393 0 1.918 1.103 1.918 2.135 0 .51-.214.956-.512 1.254-.298.298-.773.325-1.568.325-.526 0-.782-.038-.867-.05-.071-.027-.099-.05-.099-.138v-3.328zM5.06 56.87c.752-.434 1.583-1.043 1.583-2.062 0-.623-.475-2.037-3.089-2.037-.655 0-1.208.036-1.549.036-.07 0-.966-.036-1.605-.036-.156 0-.228.025-.228.1 0 .049.057.171.114.171.129 0 .37.011.484.036.467.087.581.285.61.707.028.398.028.699.028 2.636v2.087c0 1.194 0 2.175-.071 2.696-.056.361-.128.633-.412.683-.127.025-.298.05-.425.05-.085 0-.114.085-.114.122 0 .074.07.101.228.101.425 0 1.321-.037 1.391-.037.114 0 1.563.074 1.889.074 2.43 0 3.255-1.378 3.255-2.708 0-1.452-1.038-2.334-2.089-2.619zm154.338-4.058c-.484 0-.875.037-1.005.037-.131 0-.698-.037-1.231-.037-.142 0-.236.011-.236.087 0 .048.012.183.094.183.095 0 .367.013.582.061.365.1.447.374.461 1.182l.128 6.211c-.378-.41-5.49-7.291-5.675-7.508a.342.342 0 00-.075-.085.27.27 0 00-.173-.062 50.355 50.355 0 00-1.76-.037c-.143 0-.215.027-.215.101 0 .05.037.17.096.17.107 0 .369.012.591.076.321.098.467.59.491 1.608l-.008 5.48c0 1.13-.059 1.488-.356 1.576a1.621 1.621 0 01-.486.073c-.058 0-.096.122-.096.172 0 .088.073.099.19.099.533 0 1.031-.037 1.137-.037.107 0 .582.037 1.255.037.143 0 .213-.025.213-.099 0-.05-.035-.172-.095-.172-.106 0-.368-.011-.592-.073-.32-.099-.438-.423-.461-1.441l.002-6.093c.377.448 5.416 7.096 5.547 7.221.627.657.814.744.908.744.084 0 .131-.059.131-.88v-7.181c0-.745.047-1.019.439-1.106.141-.037.225-.037.283-.037.082 0 .131-.135.131-.183 0-.076-.084-.087-.215-.087m-91.887 9.382c-.017 0-.03 0-.047-.002h-.157l.204.002"/><path d="M68.996 59.9c-.085 0-.113.062-.126.163-.027.135-.247.636-.525 1.008-.203.272-.443.446-.618.51a4.009 4.009 0 01-.751.129c-1.109 0-1.478-.086-1.706-.285-.256-.223-.312-1.016-.312-2.842v-2.114c0-1.937 0-2.286.029-2.684.027-.433.14-.645.554-.705.17-.027.369-.039.468-.039.057 0 .114-.121.114-.17 0-.077-.07-.1-.227-.1-.427 0-1.464.036-1.535.036-.071 0-.966-.036-1.604-.036-.157 0-.229.023-.229.1 0 .049.058.17.115.17.127 0 .369.012.482.039.469.085.584.285.611.705.029.398.029.747.029 2.684v1.991c0 1.194 0 2.175-.072 2.696-.057.361-.127.634-.411.683a2.308 2.308 0 01-.427.048c-.085 0-.113.135-.113.172 0 .074.071.101.227.101.426 0 1.264-.037 1.392-.037.723 0 1.535.056 3.103.069l.492.002h-.092s.418-.018.423-.032c.211-.016.795-1.938.795-2.075 0-.137-.014-.187-.086-.187m10.612 0c-.085 0-.113.062-.128.163-.024.135-.247.636-.523 1.008-.205.272-.444.446-.619.51a3.995 3.995 0 01-.751.129c-1.109 0-1.478-.086-1.706-.285-.255-.223-.312-1.016-.312-2.842v-2.114c0-1.937 0-2.286.028-2.684.029-.433.143-.645.554-.705.172-.027.37-.039.469-.039.057 0 .114-.121.114-.17 0-.077-.071-.1-.228-.1-.425 0-1.463.036-1.532.036-.072 0-.967-.036-1.606-.036-.158 0-.227.023-.227.1 0 .049.056.17.113.17.128 0 .368.012.482.039.469.085.583.285.612.705.028.398.028.747.028 2.684v1.991c0 1.194 0 2.175-.071 2.696-.057.361-.128.634-.411.683a2.299 2.299 0 01-.427.048c-.085 0-.114.135-.114.172 0 .074.072.101.227.101.427 0 1.265-.037 1.394-.037.721 0 1.533.056 3.103.069l.489.002h-.092s.419-.018.424-.032c.211-.016.795-1.938.795-2.075 0-.137-.013-.187-.085-.187m-1.486 2.294c-.016 0-.029 0-.045-.002h-.158l.203.002M180.9 59.9c-.086 0-.113.062-.129.163-.023.135-.246.636-.525 1.008-.201.272-.441.446-.615.51a4.052 4.052 0 01-.754.129c-1.107 0-1.479-.086-1.703-.285-.258-.223-.315-1.016-.315-2.842v-2.114c0-1.937 0-2.286.03-2.684.027-.433.142-.645.554-.705.172-.027.368-.039.467-.039.061 0 .115-.121.115-.17 0-.077-.07-.1-.228-.1-.426 0-1.463.036-1.531.036-.073 0-.967-.036-1.608-.036-.156 0-.228.023-.228.1 0 .049.058.17.115.17.127 0 .369.012.482.039.469.085.582.285.612.705.029.398.029.747.029 2.684v1.991c0 1.194 0 2.175-.07 2.696-.057.361-.129.634-.412.683a2.327 2.327 0 01-.426.048c-.088 0-.114.135-.114.172 0 .074.069.101.223.101.43 0 1.268-.037 1.397-.037.72 0 1.535.056 3.101.069l.492.002h-.093s.418-.018.422-.032c.212-.016.796-1.938.796-2.075 0-.137-.015-.187-.084-.187m-1.488 2.294c-.014 0-.027 0-.045-.002h-.158l.203.002m10.486 0c-.015 0-.027 0-.044-.002h-.161l.205.002"/><path d="M191.385 59.9c-.084 0-.112.062-.127.163-.026.135-.246.636-.526 1.008-.203.272-.441.446-.615.51a4.011 4.011 0 01-.754.129c-1.107 0-1.478-.086-1.705-.285-.254-.223-.31-1.016-.31-2.842v-2.114c0-1.937 0-2.286.025-2.684.031-.433.145-.645.557-.705.172-.027.367-.039.466-.039.059 0 .116-.121.116-.17 0-.077-.073-.1-.229-.1-.426 0-1.463.036-1.531.036-.072 0-.967-.036-1.607-.036-.157 0-.227.023-.227.1 0 .049.057.17.113.17.129 0 .367.012.485.039.466.085.58.285.609.705.029.398.029.747.029 2.684v1.991c0 1.194 0 2.175-.072 2.696-.057.361-.127.634-.41.683a2.328 2.328 0 01-.428.048c-.084 0-.115.135-.115.172 0 .074.072.101.226.101.43 0 1.268-.037 1.397-.037.721 0 1.531.056 3.102.069l.49.002h-.092s.418-.018.422-.032c.213-.016.797-1.938.797-2.075 0-.137-.016-.187-.086-.187m-20.916.004c-.088 0-.115.061-.129.161a2.48 2.48 0 01-.33.79c-.197.297-.305.579-.719.726-.377.119-.961.119-1.312.119-1.391 0-1.606-.161-1.649-1.019-.014-.261 0-1.7 0-2.122v-1.096c0-.047.027-.084.1-.084.121 0 .533.006.966.015.194.007.389.011.565.02l.254.01c.103.005.185.011.246.016l.137.013c.373.072.646.745.728.938.07.157.082.278.098.402.004.062.037.108.109.101.1-.011.084-.145.072-.246a55.862 55.862 0 01-.021-1.28c.002-.411.053-1.11.045-1.184l-.006-.028c-.006-.05-.031-.068-.066-.068-.057 0-.114.063-.217.163-.125.123-.324.629-.666.656-.326.023-2.072.023-2.26.023-.07 0-.084-.037-.084-.124V53.38c0-.087.027-.127.084-.127.158 0 1.705.014 1.947.04l.077.006.167.018c.6.085.899.809 1.032.958.109.124.176.322.201.407.025.094.068.146.152.119.053-.014.061-.093.059-.158a61.63 61.63 0 00-.147-1.291c-.045-.32-.031-.449-.045-.54-.003-.055-4.023-.005-4.123-.005-.07 0-.964-.036-1.605-.036-.156 0-.229.023-.229.1 0 .047.057.17.116.17a3 3 0 01.482.037c.469.087.582.287.611.71.028.395.028.744.028 2.681v1.991c0 1.194 0 2.173-.073 2.696-.056.361-.125.634-.41.683-.129.024-.299.05-.425.05-.086 0-.116.133-.116.17 0 .076.073.101.229.101.428 0 1.322-.037 1.392-.037.412 0 1.362.074 3.508.074h.492c.446 0 .536 0 .604-.207.113-.36.215-1.766.215-1.901 0-.137-.016-.185-.084-.185"/></g></svg>